# xmcd
#
# Track frame offsets: 
#        150
#        12129
#        21186
#        33789
#        48796
#        64749
#        79045
#        95790
#        116829
#        131126
#        141620
#        155178
#        160427
#        173294
#        182197
#
# Disc length: 2696 seconds
#
# Revision: 0
# Processed by: cddbd v1.5.2PL0 Copyright (c) Steve Scherf et al.
# Submitted via: ExactAudioCopy v0.99pb5
#
DISCID=cb0a860f
DTITLE=Jimmy Dean - Jimmy Dean's Christmas Card: The Complete Columbia
DTITLE=Christmas Recordings
DYEAR=2015
DGENRE=Country
TTITLE0=Blue Christmas
TTITLE1=Jingle Bells
TTITLE2=Silver Bells
TTITLE3=Have Yourself A Merry Little Christmas
TTITLE4=My Christmas Room
TTITLE5=White Christmas
TTITLE6=Yes, Patricia, There Is A Santa Claus
TTITLE7=Medley: O Little Town Of Bethlehem~God Rest Ye Merry, Gentleme
TTITLE7=n~The First Noel~Joy To The World~We Wish You A Merry Christma
TTITLE7=s
TTITLE8=The Cowboy's Prayer
TTITLE9=It Came Upon The Midnight Clear
TTITLE10=Silent Night, Holy Night
TTITLE11=Jimmy's Christmas Card
TTITLE12=Little Sandy Sleighfoot
TTITLE13=When They Ring The Golden Bells (Mono Single Version)
TTITLE14=Yes, Patricia, There Is A Santa Claus (1964 Single Version)
EXTD=
EXTT0=
EXTT1=
EXTT2=
EXTT3=
EXTT4=
EXTT5=
EXTT6=
EXTT7=
EXTT8=
EXTT9=
EXTT10=
EXTT11=
EXTT12=
EXTT13=
EXTT14=
PLAYORDER=
